<?xml version="1.0" encoding="UTF-8"?>
<svg width="177.264" height="11.718" viewBox="0 0 177.264 11.718" xmlns="http://www.w3.org/2000/svg"><g id="svgGroup" stroke-linecap="round" fill-rule="evenodd" font-size="9pt" stroke="#ffffff" stroke-width="0mm" fill="#ffffff" style="stroke:#ffffff;stroke-width:0mm;fill:#ffffff"><path d="M 2.88 8.766 L 2.88 11.556 L 0 11.556 L 0 0.162 L 5.076 0.162 A 11.547 11.547 0 0 1 6.125 0.207 Q 7.123 0.298 7.812 0.576 Q 8.838 0.99 9.288 1.926 A 3.925 3.925 0 0 1 9.562 2.722 Q 9.738 3.463 9.738 4.464 Q 9.738 5.542 9.509 6.332 A 3.878 3.878 0 0 1 9.288 6.921 Q 8.838 7.866 7.812 8.316 A 4.617 4.617 0 0 1 6.946 8.59 Q 6.502 8.688 5.975 8.731 A 10.965 10.965 0 0 1 5.076 8.766 L 2.88 8.766 Z M 4.608 2.52 L 2.88 2.52 L 2.88 6.408 L 4.608 6.408 Q 5.55 6.408 6.032 6.174 A 1.048 1.048 0 0 0 6.318 5.976 A 1.21 1.21 0 0 0 6.577 5.571 Q 6.75 5.148 6.75 4.464 A 3.852 3.852 0 0 0 6.716 3.935 Q 6.632 3.332 6.34 3.003 A 1.139 1.139 0 0 0 6.318 2.979 Q 5.958 2.596 5.01 2.533 A 6.011 6.011 0 0 0 4.608 2.52 Z" id="0" vector-effect="non-scaling-stroke"/><path d="M 18.252 0.162 L 21.132 0.162 L 21.132 6.876 A 12.039 12.039 0 0 1 21.086 7.958 Q 21.038 8.489 20.94 8.937 A 4.97 4.97 0 0 1 20.709 9.702 Q 20.286 10.764 19.242 11.241 A 4.358 4.358 0 0 1 18.422 11.513 Q 17.542 11.718 16.29 11.718 A 13.266 13.266 0 0 1 15.153 11.673 Q 13.974 11.571 13.221 11.241 Q 12.132 10.764 11.7 9.702 Q 11.268 8.64 11.268 6.876 L 11.268 0.162 L 14.148 0.162 L 14.148 6.822 Q 14.148 7.74 14.328 8.262 Q 14.508 8.784 14.976 8.991 A 2.005 2.005 0 0 0 15.342 9.109 Q 15.735 9.198 16.29 9.198 A 4.897 4.897 0 0 0 16.728 9.18 Q 17.165 9.14 17.451 9.016 A 1.336 1.336 0 0 0 17.505 8.991 A 1.071 1.071 0 0 0 18.003 8.482 A 1.527 1.527 0 0 0 18.09 8.262 Q 18.245 7.763 18.252 6.903 A 10.109 10.109 0 0 0 18.252 6.822 L 18.252 0.162 Z" id="1" vector-effect="non-scaling-stroke"/><path d="M 26.172 7.902 L 26.172 11.556 L 23.292 11.556 L 23.292 0.162 L 28.728 0.162 A 7.564 7.564 0 0 1 29.841 0.238 Q 30.412 0.323 30.868 0.504 A 2.91 2.91 0 0 1 31.851 1.125 A 3.063 3.063 0 0 1 32.624 2.427 Q 32.773 2.909 32.816 3.49 A 6.503 6.503 0 0 1 32.832 3.96 A 4.69 4.69 0 0 1 32.683 5.168 A 3.723 3.723 0 0 1 32.13 6.363 Q 31.428 7.362 30.276 7.614 L 30.258 7.668 A 2.763 2.763 0 0 1 30.578 7.911 Q 30.893 8.184 31.247 8.62 A 41.137 41.137 0 0 0 31.248 8.622 A 20.326 20.326 0 0 1 32.036 9.663 A 23.551 23.551 0 0 1 32.319 10.071 A 38.49 38.49 0 0 1 32.821 10.829 A 29.911 29.911 0 0 1 33.264 11.538 L 33.264 11.556 L 29.916 11.556 L 27.972 8.676 Q 27.772 8.377 27.635 8.213 A 1.754 1.754 0 0 0 27.567 8.136 A 0.666 0.666 0 0 0 27.366 7.988 A 0.622 0.622 0 0 0 27.207 7.938 A 1.689 1.689 0 0 0 27.088 7.922 Q 26.888 7.902 26.55 7.902 L 26.172 7.902 Z M 28.26 2.502 L 26.172 2.502 L 26.172 5.562 L 28.26 5.562 Q 29.02 5.562 29.388 5.305 A 0.845 0.845 0 0 0 29.511 5.202 A 1.063 1.063 0 0 0 29.738 4.835 Q 29.86 4.518 29.862 4.047 A 3.704 3.704 0 0 0 29.862 4.032 A 2.952 2.952 0 0 0 29.835 3.615 Q 29.765 3.13 29.52 2.872 A 0.896 0.896 0 0 0 29.511 2.862 A 0.975 0.975 0 0 0 29.179 2.646 Q 28.877 2.522 28.412 2.505 A 4.154 4.154 0 0 0 28.26 2.502 Z" id="2" vector-effect="non-scaling-stroke"/><path d="M 41.886 0.162 L 44.766 0.162 L 44.766 6.876 A 12.039 12.039 0 0 1 44.72 7.958 Q 44.672 8.489 44.574 8.937 A 4.97 4.97 0 0 1 44.343 9.702 Q 43.92 10.764 42.876 11.241 A 4.358 4.358 0 0 1 42.056 11.513 Q 41.176 11.718 39.924 11.718 A 13.266 13.266 0 0 1 38.787 11.673 Q 37.608 11.571 36.855 11.241 Q 35.766 10.764 35.334 9.702 Q 34.902 8.64 34.902 6.876 L 34.902 0.162 L 37.782 0.162 L 37.782 6.822 Q 37.782 7.74 37.962 8.262 Q 38.142 8.784 38.61 8.991 A 2.005 2.005 0 0 0 38.976 9.109 Q 39.369 9.198 39.924 9.198 A 4.897 4.897 0 0 0 40.362 9.18 Q 40.799 9.14 41.085 9.016 A 1.336 1.336 0 0 0 41.139 8.991 A 1.071 1.071 0 0 0 41.637 8.482 A 1.527 1.527 0 0 0 41.724 8.262 Q 41.879 7.763 41.886 6.903 A 10.109 10.109 0 0 0 41.886 6.822 L 41.886 0.162 Z" id="3" vector-effect="non-scaling-stroke"/><path d="M 57.546 11.556 L 54.666 11.556 L 54.666 2.592 L 51.426 2.592 L 51.426 0.162 L 60.786 0.162 L 60.786 2.592 L 57.546 2.592 L 57.546 11.556 Z" id="5" vector-effect="non-scaling-stroke"/><path d="M 70.506 11.556 L 62.046 11.556 L 62.046 0.162 L 70.506 0.162 L 70.506 2.502 L 64.926 2.502 L 64.926 4.662 L 69.768 4.662 L 69.768 7.002 L 64.926 7.002 L 64.926 9.216 L 70.506 9.216 L 70.506 11.556 Z" id="6" vector-effect="non-scaling-stroke"/><path d="M 80.352 9.018 L 80.442 9.09 L 80.442 11.358 A 17.744 17.744 0 0 1 78.854 11.616 A 16.291 16.291 0 0 1 78.75 11.628 A 13.728 13.728 0 0 1 78.086 11.683 Q 77.497 11.718 76.788 11.718 A 14.073 14.073 0 0 1 75.759 11.683 Q 74.955 11.624 74.331 11.466 A 3.77 3.77 0 0 1 73.507 11.158 A 2.908 2.908 0 0 1 72.729 10.575 Q 72.226 10.043 71.955 9.141 A 5.925 5.925 0 0 1 71.856 8.766 A 9.03 9.03 0 0 1 71.697 7.839 Q 71.641 7.388 71.614 6.868 A 20.869 20.869 0 0 1 71.586 5.76 A 19.067 19.067 0 0 1 71.618 4.622 Q 71.679 3.606 71.856 2.862 A 5.038 5.038 0 0 1 72.099 2.098 Q 72.266 1.696 72.493 1.387 A 2.661 2.661 0 0 1 72.729 1.107 A 2.956 2.956 0 0 1 73.684 0.458 A 3.978 3.978 0 0 1 74.331 0.243 A 7.569 7.569 0 0 1 75.145 0.095 Q 75.599 0.036 76.123 0.014 A 15.617 15.617 0 0 1 76.788 0 A 27.162 27.162 0 0 1 77.595 0.011 Q 77.994 0.023 78.345 0.048 A 14.176 14.176 0 0 1 78.75 0.081 A 13.267 13.267 0 0 1 80.227 0.312 A 14.635 14.635 0 0 1 80.442 0.36 L 80.442 2.7 L 80.388 2.736 A 12.961 12.961 0 0 0 79.307 2.525 A 11.245 11.245 0 0 0 78.93 2.475 Q 78.447 2.419 77.812 2.402 A 22.323 22.323 0 0 0 77.202 2.394 A 9.684 9.684 0 0 0 76.668 2.408 Q 76.415 2.422 76.198 2.45 A 4.132 4.132 0 0 0 75.843 2.511 Q 75.312 2.628 75.006 2.97 A 1.431 1.431 0 0 0 74.783 3.313 Q 74.705 3.478 74.649 3.681 A 3.246 3.246 0 0 0 74.583 3.978 Q 74.471 4.614 74.466 5.659 A 20.729 20.729 0 0 0 74.466 5.76 Q 74.466 6.93 74.583 7.641 Q 74.66 8.108 74.818 8.423 A 1.441 1.441 0 0 0 75.006 8.712 A 1.43 1.43 0 0 0 75.575 9.114 A 1.899 1.899 0 0 0 75.843 9.198 A 4.003 4.003 0 0 0 76.263 9.272 Q 76.467 9.298 76.702 9.311 A 9.115 9.115 0 0 0 77.202 9.324 Q 77.974 9.324 78.571 9.287 A 13.168 13.168 0 0 0 78.921 9.261 Q 79.632 9.198 80.352 9.018 Z" id="7" vector-effect="non-scaling-stroke"/><path d="M 84.852 6.858 L 84.852 11.556 L 81.972 11.556 L 81.972 0.162 L 84.852 0.162 L 84.852 4.518 L 89.172 4.518 L 89.172 0.162 L 92.052 0.162 L 92.052 11.556 L 89.172 11.556 L 89.172 6.858 L 84.852 6.858 Z" id="8" vector-effect="non-scaling-stroke"/><path d="M 101.592 4.734 L 101.592 0.162 L 104.472 0.162 L 104.472 11.556 L 101.61 11.556 L 98.37 6.732 A 119.718 119.718 0 0 1 98.104 6.325 Q 97.898 6.008 97.74 5.76 Q 97.488 5.364 97.272 4.968 Q 97.056 4.572 96.786 4.032 L 96.732 4.104 Q 96.984 4.968 97.038 5.715 Q 97.092 6.462 97.092 7.164 L 97.092 11.556 L 94.212 11.556 L 94.212 0.162 L 97.074 0.162 L 100.314 4.986 A 41.405 41.405 0 0 1 100.58 5.383 Q 100.683 5.54 100.774 5.681 A 20.965 20.965 0 0 1 100.944 5.949 A 16.255 16.255 0 0 1 101.398 6.725 A 14.93 14.93 0 0 1 101.412 6.75 Q 101.628 7.146 101.898 7.686 L 101.952 7.614 A 14.274 14.274 0 0 1 101.733 6.505 A 12.649 12.649 0 0 1 101.682 6.147 Q 101.592 5.436 101.592 4.734 Z" id="9" vector-effect="non-scaling-stroke"/><path d="M 106.272 5.85 Q 106.272 3.672 106.767 2.394 Q 107.262 1.116 108.477 0.558 Q 109.667 0.012 111.781 0 A 16.78 16.78 0 0 1 111.87 0 Q 113.049 0 113.939 0.159 A 6.684 6.684 0 0 1 114.588 0.306 A 4.32 4.32 0 0 1 115.446 0.646 A 3.182 3.182 0 0 1 116.298 1.296 Q 116.928 1.98 117.189 3.105 A 9.081 9.081 0 0 1 117.358 4.101 Q 117.415 4.593 117.437 5.153 A 18.133 18.133 0 0 1 117.45 5.85 A 17.161 17.161 0 0 1 117.413 7.006 Q 117.352 7.91 117.189 8.613 Q 116.928 9.738 116.298 10.422 A 3.225 3.225 0 0 1 115.342 11.126 A 4.419 4.419 0 0 1 114.588 11.412 Q 113.782 11.64 112.666 11.698 A 15.367 15.367 0 0 1 111.87 11.718 Q 110.691 11.718 109.801 11.56 A 6.684 6.684 0 0 1 109.152 11.412 A 4.32 4.32 0 0 1 108.294 11.072 A 3.182 3.182 0 0 1 107.442 10.422 Q 106.821 9.747 106.549 8.644 A 5.881 5.881 0 0 1 106.542 8.613 A 8.634 8.634 0 0 1 106.377 7.697 Q 106.312 7.184 106.287 6.593 A 17.761 17.761 0 0 1 106.272 5.85 Z M 111.87 9.198 A 7.414 7.414 0 0 0 112.472 9.175 Q 113.072 9.126 113.46 8.972 A 1.785 1.785 0 0 0 113.598 8.91 A 1.407 1.407 0 0 0 114.256 8.215 A 2.049 2.049 0 0 0 114.372 7.893 A 4.504 4.504 0 0 0 114.476 7.38 Q 114.557 6.842 114.568 6.099 A 16.337 16.337 0 0 0 114.57 5.85 A 13.745 13.745 0 0 0 114.552 5.114 Q 114.514 4.417 114.4 3.943 A 3.493 3.493 0 0 0 114.372 3.834 A 1.892 1.892 0 0 0 114.17 3.354 A 1.417 1.417 0 0 0 113.598 2.817 A 2.138 2.138 0 0 0 113.158 2.654 Q 112.716 2.539 112.083 2.523 A 8.32 8.32 0 0 0 111.87 2.52 A 7.019 7.019 0 0 0 111.276 2.544 Q 110.661 2.596 110.262 2.766 A 1.807 1.807 0 0 0 110.151 2.817 A 1.482 1.482 0 0 0 109.454 3.569 A 2.087 2.087 0 0 0 109.359 3.834 Q 109.172 4.484 109.154 5.605 A 15.205 15.205 0 0 0 109.152 5.85 A 13.511 13.511 0 0 0 109.171 6.596 Q 109.21 7.303 109.33 7.783 A 3.442 3.442 0 0 0 109.359 7.893 A 1.909 1.909 0 0 0 109.565 8.373 A 1.404 1.404 0 0 0 110.151 8.91 Q 110.736 9.198 111.87 9.198 Z" id="10" vector-effect="non-scaling-stroke"/><path d="M 122.13 9.108 L 127.53 9.108 L 127.53 11.556 L 119.25 11.556 L 119.25 0.162 L 122.13 0.162 L 122.13 9.108 Z" id="11" vector-effect="non-scaling-stroke"/><path d="M 128.43 5.85 Q 128.43 3.672 128.925 2.394 Q 129.42 1.116 130.635 0.558 Q 131.825 0.012 133.939 0 A 16.78 16.78 0 0 1 134.028 0 Q 135.207 0 136.097 0.159 A 6.684 6.684 0 0 1 136.746 0.306 A 4.32 4.32 0 0 1 137.604 0.646 A 3.182 3.182 0 0 1 138.456 1.296 Q 139.086 1.98 139.347 3.105 A 9.081 9.081 0 0 1 139.516 4.101 Q 139.573 4.593 139.595 5.153 A 18.133 18.133 0 0 1 139.608 5.85 A 17.161 17.161 0 0 1 139.571 7.006 Q 139.51 7.91 139.347 8.613 Q 139.086 9.738 138.456 10.422 A 3.225 3.225 0 0 1 137.5 11.126 A 4.419 4.419 0 0 1 136.746 11.412 Q 135.94 11.64 134.824 11.698 A 15.367 15.367 0 0 1 134.028 11.718 Q 132.849 11.718 131.959 11.56 A 6.684 6.684 0 0 1 131.31 11.412 A 4.32 4.32 0 0 1 130.452 11.072 A 3.182 3.182 0 0 1 129.6 10.422 Q 128.979 9.747 128.707 8.644 A 5.881 5.881 0 0 1 128.7 8.613 A 8.634 8.634 0 0 1 128.535 7.697 Q 128.47 7.184 128.445 6.593 A 17.761 17.761 0 0 1 128.43 5.85 Z M 134.028 9.198 A 7.414 7.414 0 0 0 134.63 9.175 Q 135.23 9.126 135.618 8.972 A 1.785 1.785 0 0 0 135.756 8.91 A 1.407 1.407 0 0 0 136.414 8.215 A 2.049 2.049 0 0 0 136.53 7.893 A 4.504 4.504 0 0 0 136.634 7.38 Q 136.715 6.842 136.726 6.099 A 16.337 16.337 0 0 0 136.728 5.85 A 13.745 13.745 0 0 0 136.71 5.114 Q 136.672 4.417 136.558 3.943 A 3.493 3.493 0 0 0 136.53 3.834 A 1.892 1.892 0 0 0 136.328 3.354 A 1.417 1.417 0 0 0 135.756 2.817 A 2.138 2.138 0 0 0 135.316 2.654 Q 134.874 2.539 134.241 2.523 A 8.32 8.32 0 0 0 134.028 2.52 A 7.019 7.019 0 0 0 133.434 2.544 Q 132.819 2.596 132.42 2.766 A 1.807 1.807 0 0 0 132.309 2.817 A 1.482 1.482 0 0 0 131.612 3.569 A 2.087 2.087 0 0 0 131.517 3.834 Q 131.33 4.484 131.312 5.605 A 15.205 15.205 0 0 0 131.31 5.85 A 13.511 13.511 0 0 0 131.329 6.596 Q 131.368 7.303 131.488 7.783 A 3.442 3.442 0 0 0 131.517 7.893 A 1.909 1.909 0 0 0 131.723 8.373 A 1.404 1.404 0 0 0 132.309 8.91 Q 132.894 9.198 134.028 9.198 Z" id="12" vector-effect="non-scaling-stroke"/><path d="M 148.698 9.216 L 148.698 8.19 Q 148.698 7.596 148.752 7.11 L 148.716 7.056 A 10.361 10.361 0 0 1 148.121 7.123 A 13.07 13.07 0 0 1 147.618 7.155 Q 147.054 7.181 146.571 7.166 A 10.705 10.705 0 0 1 146.52 7.164 L 146.52 4.824 L 151.218 4.806 L 151.218 10.926 A 7.581 7.581 0 0 1 150.215 11.297 A 9.732 9.732 0 0 1 149.337 11.511 A 9.475 9.475 0 0 1 148.507 11.633 Q 148.054 11.681 147.528 11.702 A 21.805 21.805 0 0 1 146.664 11.718 A 12.957 12.957 0 0 1 145.405 11.661 Q 144.121 11.535 143.28 11.133 Q 142.056 10.548 141.552 9.243 Q 141.048 7.938 141.048 5.76 A 12.734 12.734 0 0 1 141.096 4.622 Q 141.147 4.051 141.254 3.565 A 5.771 5.771 0 0 1 141.453 2.862 A 4.572 4.572 0 0 1 141.879 1.97 A 3.374 3.374 0 0 1 142.641 1.107 A 4.234 4.234 0 0 1 143.82 0.455 A 5.428 5.428 0 0 1 144.558 0.243 Q 145.62 0.016 146.966 0.001 A 17.128 17.128 0 0 1 147.15 0 Q 148.014 0 148.887 0.072 Q 149.76 0.144 150.624 0.342 L 150.624 2.718 L 150.57 2.754 Q 149.814 2.574 149.067 2.502 Q 148.32 2.43 147.564 2.43 Q 146.466 2.43 145.647 2.655 Q 144.828 2.88 144.378 3.582 Q 143.969 4.22 143.932 5.498 A 9.009 9.009 0 0 0 143.928 5.76 Q 143.928 7.218 144.171 7.983 A 1.859 1.859 0 0 0 144.427 8.507 A 1.502 1.502 0 0 0 145.089 9.027 Q 145.764 9.306 147.024 9.306 A 8.585 8.585 0 0 0 147.116 9.306 Q 147.271 9.304 147.528 9.297 Q 147.87 9.288 148.212 9.27 Q 148.47 9.257 148.615 9.233 A 1.038 1.038 0 0 0 148.698 9.216 Z" id="13" vector-effect="non-scaling-stroke"/><path d="M 156.078 0.162 L 156.078 11.556 L 153.198 11.556 L 153.198 0.162 L 156.078 0.162 Z" id="14" vector-effect="non-scaling-stroke"/><path d="M 166.698 11.556 L 158.238 11.556 L 158.238 0.162 L 166.698 0.162 L 166.698 2.502 L 161.118 2.502 L 161.118 4.662 L 165.96 4.662 L 165.96 7.002 L 161.118 7.002 L 161.118 9.216 L 166.698 9.216 L 166.698 11.556 Z" id="15" vector-effect="non-scaling-stroke"/><path d="M 167.778 8.676 L 167.85 8.622 A 9.89 9.89 0 0 0 168.9 8.914 A 12.119 12.119 0 0 0 169.587 9.045 Q 170.532 9.198 171.468 9.198 A 22.855 22.855 0 0 0 172.066 9.191 Q 172.688 9.174 173.105 9.122 A 4.426 4.426 0 0 0 173.367 9.081 A 2.98 2.98 0 0 0 173.651 9.014 Q 173.931 8.932 174.086 8.811 A 0.588 0.588 0 0 0 174.186 8.712 Q 174.384 8.46 174.384 8.064 Q 174.384 7.815 174.308 7.643 A 0.641 0.641 0 0 0 174.24 7.524 A 0.577 0.577 0 0 0 174.105 7.395 Q 173.972 7.3 173.753 7.23 A 2.27 2.27 0 0 0 173.682 7.209 A 3.45 3.45 0 0 0 173.418 7.147 Q 173.04 7.072 172.458 7.02 L 171.27 6.912 A 8.178 8.178 0 0 1 170.457 6.796 Q 170.054 6.717 169.721 6.599 A 3.444 3.444 0 0 1 169.173 6.354 A 2.689 2.689 0 0 1 168.525 5.852 A 2.285 2.285 0 0 1 168.093 5.193 Q 167.808 4.533 167.781 3.631 A 6.414 6.414 0 0 1 167.778 3.438 Q 167.778 2.214 168.273 1.458 A 2.411 2.411 0 0 1 169.026 0.736 Q 169.338 0.541 169.734 0.401 A 4.587 4.587 0 0 1 169.884 0.351 A 6.387 6.387 0 0 1 170.738 0.151 Q 171.188 0.076 171.717 0.038 A 16.006 16.006 0 0 1 172.854 0 Q 174.638 0 175.96 0.345 A 7.221 7.221 0 0 1 176.832 0.63 L 176.778 3.078 L 176.724 3.15 Q 174.942 2.52 172.998 2.52 A 14.8 14.8 0 0 0 172.557 2.526 Q 172.082 2.54 171.749 2.587 A 3.577 3.577 0 0 0 171.558 2.619 A 2.41 2.41 0 0 0 171.302 2.683 Q 170.999 2.778 170.856 2.934 A 0.706 0.706 0 0 0 170.702 3.214 Q 170.669 3.323 170.661 3.453 A 1.459 1.459 0 0 0 170.658 3.546 A 1.873 1.873 0 0 0 170.669 3.753 Q 170.694 3.98 170.78 4.119 A 0.53 0.53 0 0 0 170.793 4.14 Q 170.928 4.338 171.342 4.437 A 5.364 5.364 0 0 0 171.621 4.495 Q 171.876 4.542 172.218 4.586 A 20.985 20.985 0 0 0 172.548 4.626 L 173.682 4.752 Q 175.089 4.91 175.86 5.309 A 2.928 2.928 0 0 1 175.896 5.328 A 2.704 2.704 0 0 1 176.464 5.727 A 2.072 2.072 0 0 1 176.967 6.435 A 3.435 3.435 0 0 1 177.18 7.15 Q 177.264 7.592 177.264 8.118 Q 177.264 9.209 176.844 9.969 A 2.814 2.814 0 0 1 176.751 10.125 Q 176.238 10.926 175.086 11.322 Q 174.312 11.588 173.189 11.675 A 15.285 15.285 0 0 1 172.008 11.718 A 20.23 20.23 0 0 1 170.829 11.685 Q 170.252 11.652 169.74 11.583 Q 168.732 11.448 167.778 11.214 L 167.778 8.676 Z" id="16" vector-effect="non-scaling-stroke"/></g></svg>
